<svg width="8" height="12" viewBox="0 0 8 12" fill="none" xmlns="http://www.w3.org/2000/svg">
<path d="M6.84089 0.319748L5.36703 0.317383C3.7112 0.317383 2.64114 1.41524 2.64114 3.11446V4.4041H1.15924C1.03119 4.4041 0.92749 4.50791 0.92749 4.63596V6.5045C0.92749 6.63256 1.0313 6.73625 1.15924 6.73625H2.64114V11.4512C2.64114 11.5792 2.74483 11.6829 2.87289 11.6829H4.80634C4.93439 11.6829 5.03809 11.5791 5.03809 11.4512V6.73625H6.77077C6.89882 6.73625 7.00252 6.63256 7.00252 6.5045L7.00323 4.63596C7.00323 4.57448 6.97875 4.5156 6.93536 4.47208C6.89197 4.42857 6.83285 4.4041 6.77136 4.4041H5.03809V3.31085C5.03809 2.7854 5.1633 2.51865 5.84779 2.51865L6.84065 2.51829C6.96859 2.51829 7.07228 2.41448 7.07228 2.28654V0.551497C7.07228 0.42368 6.9687 0.319984 6.84089 0.319748Z" fill="white"/>
</svg>
