<svg width="12" height="12" viewBox="0 0 12 12" fill="none" xmlns="http://www.w3.org/2000/svg">
<path fill-rule="evenodd" clip-rule="evenodd" d="M0.5 2.78045C0.5 1.36755 1.64538 0.222168 3.05828 0.222168H8.94186C10.3548 0.222168 11.5001 1.36755 11.5001 2.78045V9.2196C11.5001 10.6325 10.3548 11.7779 8.94187 11.7779H3.05828C1.64538 11.7779 0.5 10.6325 0.5 9.2196V2.78045ZM3.35565 5.99974C3.35565 4.52696 4.54957 3.33304 6.02235 3.33304C7.49513 3.33304 8.68905 4.52697 8.68905 5.99975V6.15706C8.68905 7.62984 7.49513 8.82376 6.02235 8.82376C4.54957 8.82376 3.35565 7.62983 3.35565 6.15706V5.99974ZM9.12185 1.88894C8.72297 1.88894 8.39962 2.2123 8.39962 2.61117C8.39962 3.01005 8.72297 3.33341 9.12185 3.33341C9.52073 3.33341 9.84408 3.01005 9.84408 2.61117C9.84408 2.2123 9.52073 1.88894 9.12185 1.88894Z" fill="white"/>
<path d="M4.3689 6C4.3689 5.09915 5.09918 4.36887 6.00003 4.36887C6.90088 4.36887 7.63116 5.09915 7.63116 6C7.63116 6.90085 6.90088 7.63113 6.00003 7.63113C5.09918 7.63113 4.3689 6.90085 4.3689 6Z" fill="white"/>
</svg>
