<svg width="320" height="44" viewBox="0 0 320 44" fill="none" xmlns="http://www.w3.org/2000/svg">
<rect width="116" height="44" rx="4" fill="#FFCA2C"/>
<path d="M23.2506 14.98H16.7546V11.9H33.3866V14.98H26.8906V31.5H23.2506V14.98ZM45.0009 31.78C43.0036 31.78 41.2022 31.3507 39.5969 30.492C37.9916 29.6147 36.7316 28.4107 35.8169 26.88C34.9022 25.3307 34.4449 23.604 34.4449 21.7C34.4449 19.796 34.9022 18.0787 35.8169 16.548C36.7316 14.9987 37.9916 13.7947 39.5969 12.936C41.2022 12.0587 43.0036 11.62 45.0009 11.62C46.9982 11.62 48.7996 12.0587 50.4049 12.936C52.0102 13.7947 53.2702 14.9893 54.1849 16.52C55.0996 18.0507 55.5569 19.7773 55.5569 21.7C55.5569 23.6227 55.0996 25.3493 54.1849 26.88C53.2702 28.4107 52.0102 29.6147 50.4049 30.492C48.7996 31.3507 46.9982 31.78 45.0009 31.78ZM45.0009 28.588C46.3076 28.588 47.4836 28.2987 48.5289 27.72C49.5742 27.1227 50.3956 26.3013 50.9929 25.256C51.5902 24.192 51.8889 23.0067 51.8889 21.7C51.8889 20.3933 51.5902 19.2173 50.9929 18.172C50.3956 17.108 49.5742 16.2867 48.5289 15.708C47.4836 15.1107 46.3076 14.812 45.0009 14.812C43.6942 14.812 42.5182 15.1107 41.4729 15.708C40.4276 16.2867 39.6062 17.108 39.0089 18.172C38.4116 19.2173 38.1129 20.3933 38.1129 21.7C38.1129 23.0067 38.4116 24.192 39.0089 25.256C39.6062 26.3013 40.4276 27.1227 41.4729 27.72C42.5182 28.2987 43.6942 28.588 45.0009 28.588ZM67.8432 31.78C65.1365 31.78 63.0272 31.024 61.5152 29.512C60.0032 27.9813 59.2472 25.7973 59.2472 22.96V11.9H62.8872V22.82C62.8872 26.6653 64.5485 28.588 67.8712 28.588C71.1752 28.588 72.8272 26.6653 72.8272 22.82V11.9H76.4112V22.96C76.4112 25.7973 75.6552 27.9813 74.1432 29.512C72.6499 31.024 70.5499 31.78 67.8432 31.78ZM94.333 31.5L90.329 25.76C90.161 25.7787 89.909 25.788 89.573 25.788H85.149V31.5H81.509V11.9H89.573C91.2716 11.9 92.7463 12.18 93.997 12.74C95.2663 13.3 96.237 14.1027 96.909 15.148C97.581 16.1933 97.917 17.4347 97.917 18.872C97.917 20.3467 97.553 21.616 96.825 22.68C96.1156 23.744 95.089 24.5373 93.745 25.06L98.253 31.5H94.333ZM94.249 18.872C94.249 17.6213 93.8383 16.66 93.017 15.988C92.1956 15.316 90.9916 14.98 89.405 14.98H85.149V22.792H89.405C90.9916 22.792 92.1956 22.456 93.017 21.784C93.8383 21.0933 94.249 20.1227 94.249 18.872Z" fill="black"/>
<path d="M144.06 32.28C141.353 32.28 139.244 31.524 137.732 30.012C136.22 28.4813 135.464 26.2973 135.464 23.46V12.4H139.104V23.32C139.104 27.1653 140.765 29.088 144.088 29.088C147.392 29.088 149.044 27.1653 149.044 23.32V12.4H152.628V23.46C152.628 26.2973 151.872 28.4813 150.36 30.012C148.867 31.524 146.767 32.28 144.06 32.28ZM172.958 28.92V32H156.242V29.564L167.778 15.48H156.438V12.4H172.594V14.836L161.058 28.92H172.958ZM190.18 21.808C191.263 22.1627 192.121 22.76 192.756 23.6C193.391 24.4213 193.708 25.448 193.708 26.68C193.708 28.3787 193.055 29.6947 191.748 30.628C190.441 31.5427 188.537 32 186.036 32H176.292V12.4H185.476C187.791 12.4 189.573 12.8573 190.824 13.772C192.075 14.668 192.7 15.9093 192.7 17.496C192.7 18.4667 192.476 19.3253 192.028 20.072C191.58 20.8187 190.964 21.3973 190.18 21.808ZM179.932 15.256V20.66H185.084C186.353 20.66 187.324 20.436 187.996 19.988C188.687 19.5213 189.032 18.8493 189.032 17.972C189.032 17.076 188.687 16.404 187.996 15.956C187.324 15.4893 186.353 15.256 185.084 15.256H179.932ZM185.812 29.144C188.631 29.144 190.04 28.2013 190.04 26.316C190.04 24.4307 188.631 23.488 185.812 23.488H179.932V29.144H185.812ZM212.293 28.948V32H197.593V12.4H211.901V15.452H201.233V20.548H210.697V23.544H201.233V28.948H212.293ZM223.099 23.796L219.991 26.988V32H216.351V12.4H219.991V22.452L229.679 12.4H233.767L225.535 21.164L234.271 32H230.015L223.099 23.796ZM236.749 12.4H240.389V32H236.749V12.4ZM251.767 32.28C250.255 32.28 248.789 32.0653 247.371 31.636C245.971 31.2067 244.86 30.6373 244.039 29.928L245.299 27.1C246.101 27.7347 247.081 28.2573 248.239 28.668C249.415 29.06 250.591 29.256 251.767 29.256C253.223 29.256 254.305 29.0227 255.015 28.556C255.743 28.0893 256.107 27.4733 256.107 26.708C256.107 26.148 255.901 25.6907 255.491 25.336C255.099 24.9627 254.595 24.6733 253.979 24.468C253.363 24.2627 252.523 24.0293 251.459 23.768C249.965 23.4133 248.752 23.0587 247.819 22.704C246.904 22.3493 246.111 21.7987 245.439 21.052C244.785 20.2867 244.459 19.26 244.459 17.972C244.459 16.8893 244.748 15.9093 245.327 15.032C245.924 14.136 246.811 13.4267 247.987 12.904C249.181 12.3813 250.637 12.12 252.355 12.12C253.549 12.12 254.725 12.2693 255.883 12.568C257.04 12.8667 258.039 13.296 258.879 13.856L257.731 16.684C256.872 16.18 255.976 15.7973 255.043 15.536C254.109 15.2747 253.204 15.144 252.327 15.144C250.889 15.144 249.816 15.3867 249.107 15.872C248.416 16.3573 248.071 17.0013 248.071 17.804C248.071 18.364 248.267 18.8213 248.659 19.176C249.069 19.5307 249.583 19.8107 250.199 20.016C250.815 20.2213 251.655 20.4547 252.719 20.716C254.175 21.052 255.369 21.4067 256.303 21.78C257.236 22.1347 258.029 22.6853 258.683 23.432C259.355 24.1787 259.691 25.1867 259.691 26.456C259.691 27.5387 259.392 28.5187 258.795 29.396C258.216 30.2733 257.329 30.9733 256.135 31.496C254.94 32.0187 253.484 32.28 251.767 32.28ZM267.003 15.48H260.507V12.4H277.139V15.48H270.643V32H267.003V15.48ZM291.598 27.464H281.798L279.866 32H276.114L284.934 12.4H288.518L297.366 32H293.558L291.598 27.464ZM290.394 24.608L286.698 16.04L283.03 24.608H290.394ZM317.275 12.4V32H314.279L303.471 18.728V32H299.859V12.4H302.855L313.663 25.672V12.4H317.275Z" fill="white"/>
</svg>
