<svg width="21" height="21" viewBox="0 0 21 21" fill="none" xmlns="http://www.w3.org/2000/svg">
<path d="M15.9656 13.8916C15.2795 13.2142 14.423 13.2142 13.7413 13.8916C13.2213 14.4073 12.7013 14.9229 12.19 15.4473C12.0501 15.5916 11.9321 15.6222 11.7617 15.526C11.4252 15.3425 11.0669 15.1939 10.7435 14.9929C9.23587 14.0445 7.97295 12.8253 6.85423 11.4531C6.29925 10.7714 5.80544 10.0415 5.46021 9.21997C5.39029 9.0539 5.4034 8.94465 5.53887 8.80918C6.0589 8.30662 6.56581 7.79095 7.0771 7.27528C7.78941 6.55858 7.78941 5.71952 7.07273 4.99846C6.66632 4.58767 6.25992 4.18562 5.85351 3.77483C5.43399 3.3553 5.01884 2.9314 4.59495 2.51624C3.90887 1.84762 3.05235 1.84762 2.37064 2.52061C1.84624 3.03629 1.34369 3.56507 0.810555 4.072C0.316747 4.5396 0.0676587 5.11208 0.015219 5.7807C-0.0678106 6.86886 0.198758 7.89583 0.574576 8.89658C1.34369 10.968 2.51485 12.8078 3.93509 14.4947C5.85351 16.7759 8.14338 18.5807 10.8222 19.883C12.0283 20.4686 13.2781 20.9187 14.6372 20.993C15.5723 21.0454 16.3852 20.8095 17.0363 20.0796C17.482 19.5815 17.9846 19.127 18.4565 18.6506C19.1557 17.9427 19.1601 17.0861 18.4653 16.3869C17.635 15.5522 16.8003 14.7219 15.9656 13.8916Z" fill="white"/>
<path d="M15.1312 10.4099L16.7438 10.1346C16.4903 8.65316 15.7911 7.31154 14.7292 6.24524C13.6061 5.12213 12.1859 4.41417 10.6214 4.19567L10.3942 5.81697C11.6047 5.9874 12.7059 6.53367 13.5755 7.40331C14.3971 8.22489 14.9346 9.26497 15.1312 10.4099Z" fill="white"/>
<path d="M17.6526 3.39993C15.791 1.53827 13.4356 0.362718 10.8354 0L10.6082 1.6213C12.8544 1.93595 14.8908 2.95418 16.4989 4.558C18.024 6.08317 19.0248 8.01038 19.3875 10.1299L21 9.85456C20.5761 7.39856 19.4181 5.16982 17.6526 3.39993Z" fill="white"/>
</svg>
