<svg width="12" height="10" viewBox="0 0 12 10" fill="none" xmlns="http://www.w3.org/2000/svg">
<path d="M12.0001 1.27926C11.5539 1.47501 11.0783 1.60476 10.5826 1.66776C11.0926 1.36326 11.4819 0.884757 11.6649 0.308002C11.1894 0.591504 10.6643 0.791756 10.1048 0.903507C9.65334 0.422753 9.00983 0.125 8.30782 0.125C6.94581 0.125 5.8493 1.23051 5.8493 2.58577C5.8493 2.78077 5.8658 2.96827 5.9063 3.14678C3.86103 3.04703 2.05127 2.06677 0.835507 0.573504C0.623256 0.941757 0.498754 1.36326 0.498754 1.81701C0.498754 2.66902 0.937508 3.42428 1.59151 3.86153C1.19626 3.85403 0.808507 3.73928 0.480004 3.55853C0.480004 3.56603 0.480004 3.57578 0.480004 3.58553C0.480004 4.78104 1.33276 5.77405 2.45102 6.0028C2.25077 6.05755 2.03252 6.0838 1.80602 6.0838C1.64851 6.0838 1.48951 6.0748 1.34026 6.0418C1.65901 7.01606 2.56352 7.73232 3.63903 7.75557C2.80203 8.41032 1.73927 8.80483 0.588755 8.80483C0.387003 8.80483 0.193502 8.79583 0 8.77108C1.08976 9.47383 2.38127 9.87509 3.77403 9.87509C8.30107 9.87509 10.7761 6.12505 10.7761 2.87452C10.7761 2.76577 10.7723 2.66077 10.7671 2.55652C11.2554 2.21002 11.6656 1.77726 12.0001 1.27926Z" fill="white"/>
</svg>
