<svg width="14" height="8" viewBox="0 0 14 8" fill="none" xmlns="http://www.w3.org/2000/svg">
<path fill-rule="evenodd" clip-rule="evenodd" d="M12.0488 5.07614C12.5132 5.52953 13.0034 5.95612 13.4199 6.45524C13.6039 6.67704 13.7781 6.90592 13.9113 7.16332C14.1001 7.52923 13.9291 7.93189 13.601 7.95374L11.5615 7.95282C11.0355 7.99648 10.6158 7.7847 10.263 7.42505C9.9806 7.13742 9.71911 6.83131 9.44758 6.53398C9.33627 6.41246 9.21976 6.29811 9.08057 6.20772C8.80215 6.027 8.56047 6.08233 8.40137 6.37272C8.23932 6.66807 8.20257 6.99511 8.18665 7.32427C8.1648 7.80453 8.01963 7.93079 7.53721 7.95278C6.50622 8.0014 5.52776 7.84542 4.6188 7.32533C3.81744 6.86682 3.19601 6.21954 2.65512 5.48676C1.60201 4.05987 0.795533 2.49195 0.0707038 0.8801C-0.0924495 0.516949 0.0268681 0.322011 0.427553 0.315112C1.09291 0.302186 1.75817 0.303106 2.42431 0.314192C2.69473 0.318148 2.87375 0.473251 2.97816 0.728722C3.33814 1.61385 3.77861 2.45598 4.3315 3.23655C4.47874 3.44437 4.62888 3.65219 4.84267 3.79846C5.07919 3.96042 5.25927 3.90674 5.37054 3.64327C5.44115 3.4762 5.47206 3.29626 5.48797 3.11733C5.54069 2.50174 5.54763 1.88722 5.45518 1.27379C5.39842 0.890955 5.18278 0.64312 4.80077 0.570674C4.60583 0.533738 4.63486 0.4612 4.72924 0.349932C4.89318 0.15803 5.04736 0.0385742 5.35472 0.0385742H7.6597C8.02258 0.110192 8.10317 0.273208 8.15284 0.638337L8.15482 3.1987C8.15086 3.34005 8.22543 3.7595 8.48002 3.85306C8.68379 3.91966 8.81811 3.75665 8.94037 3.62744C9.49225 3.04171 9.88612 2.34949 10.238 1.63271C10.3942 1.31754 10.5284 0.990218 10.6586 0.663175C10.755 0.420492 10.9063 0.301082 11.1796 0.306372L13.398 0.30835C13.4638 0.30835 13.5304 0.309316 13.5941 0.320217C13.9679 0.383924 14.0703 0.544732 13.9549 0.909768C13.773 1.48248 13.419 1.95975 13.0729 2.43923C12.703 2.95114 12.3073 3.44552 11.9404 3.96046C11.6034 4.4307 11.6301 4.66772 12.0488 5.07614Z" fill="white"/>
</svg>
