<svg width="14" height="16" viewBox="0 0 14 16" fill="none" xmlns="http://www.w3.org/2000/svg">
<path d="M13.0307 8.25442C12.9577 7.92258 12.7959 7.6443 12.5457 7.41946C12.2954 7.19462 12.0073 7.06245 11.681 7.02307C10.6465 6.91064 9.08621 6.85445 6.99999 6.85445C4.91382 6.85445 3.3563 6.91067 2.32728 7.02307C1.99562 7.06245 1.70605 7.19462 1.45855 7.41946C1.21111 7.64439 1.04804 7.9227 0.969287 8.25442C0.823115 8.90679 0.75 9.89076 0.75 11.2065C0.75 12.5447 0.823115 13.5288 0.969287 14.1586C1.04249 14.4902 1.20417 14.7687 1.45439 14.9935C1.70461 15.2184 1.99278 15.3477 2.31886 15.3815C3.35358 15.4996 4.914 15.5586 7.00004 15.5586C9.08594 15.5586 10.6467 15.4996 11.681 15.3815C12.0072 15.3477 12.2939 15.2184 12.5414 14.9935C12.7889 14.7688 12.952 14.4902 13.0306 14.1586C13.1768 13.5063 13.25 12.5223 13.25 11.2065C13.25 9.86831 13.1768 8.88422 13.0307 8.25442ZM4.31803 9.10646H3.41556V13.9055H2.57218V9.10646H1.68653V8.31365H4.31806L4.31803 9.10646ZM6.59524 13.9055H5.84459V13.4499C5.54096 13.793 5.25408 13.9645 4.98419 13.9645C4.72558 13.9645 4.56248 13.8604 4.4951 13.6524C4.45017 13.5175 4.42757 13.3121 4.42757 13.0367V9.73891H5.17822V12.809C5.17822 12.9888 5.18105 13.0873 5.18673 13.1042C5.20359 13.2223 5.26259 13.2813 5.36386 13.2813C5.51564 13.2813 5.67599 13.1632 5.84462 12.9271V9.73891H6.59527L6.59524 13.9055ZM9.46292 12.6571C9.46292 13.0676 9.43766 13.3489 9.3873 13.5008C9.29146 13.8099 9.092 13.9645 8.7884 13.9645C8.51848 13.9645 8.25707 13.8099 8.0039 13.5008V13.9056H7.25336V8.31365H8.0039V10.1439C8.24581 9.84042 8.50717 9.68857 8.7884 9.68857C9.092 9.68857 9.29146 9.84606 9.3873 10.1609C9.43763 10.3071 9.46292 10.5854 9.46292 10.9958V12.6571ZM12.3137 11.9656H10.804V12.6994C10.804 13.0874 10.9333 13.2813 11.192 13.2813C11.3775 13.2813 11.49 13.1802 11.5293 12.9776C11.5404 12.9214 11.5462 12.75 11.5462 12.4632H12.3137V12.5728C12.3137 12.8484 12.308 13.0114 12.2968 13.0621C12.2801 13.2138 12.2212 13.3656 12.1197 13.5175C11.9173 13.8155 11.6134 13.9645 11.2086 13.9645C10.8208 13.9645 10.5171 13.8211 10.2978 13.5344C10.1348 13.3264 10.0533 13.0002 10.0533 12.556V11.0968C10.0533 10.6526 10.1319 10.3265 10.2893 10.1184C10.5087 9.8317 10.8095 9.68834 11.192 9.68834C11.5688 9.68834 11.867 9.8317 12.086 10.1184C12.238 10.3265 12.3137 10.6526 12.3137 11.0968V11.9656Z" fill="white"/>
<path d="M8.38319 10.3712C8.25379 10.3712 8.12742 10.4333 8.00367 10.5568V13.0955C8.12739 13.2191 8.25379 13.281 8.38319 13.281C8.60236 13.281 8.71228 13.0927 8.71228 12.7158V10.9364C8.71225 10.5596 8.60259 10.3712 8.38319 10.3712Z" fill="white"/>
<path d="M11.1834 10.3712C10.9304 10.3712 10.8039 10.5625 10.8039 10.9446V11.3326H11.5629V10.9446C11.5629 10.5623 11.4364 10.3712 11.1834 10.3712Z" fill="white"/>
<path d="M3.82945 3.80962V6.0954H4.67284V3.80962L5.69323 0.444336H4.83295L4.25955 2.66258L3.66065 0.444336H2.76667C2.92412 0.916705 3.10687 1.4424 3.31493 2.02159C3.57924 2.7975 3.75064 3.39362 3.82945 3.80962Z" fill="white"/>
<path d="M6.82276 6.15402C7.21075 6.15402 7.50868 6.01063 7.71674 5.72387C7.87426 5.51581 7.9529 5.18403 7.9529 4.72864V3.25257C7.9529 2.8028 7.87405 2.47377 7.71674 2.2657C7.50868 1.97894 7.21075 1.83555 6.82276 1.83555C6.44592 1.83555 6.15069 1.97894 5.9371 2.2657C5.77973 2.47377 5.701 2.8028 5.701 3.25257V4.72861C5.701 5.17838 5.77964 5.51019 5.9371 5.72384C6.15077 6.01063 6.44589 6.15402 6.82276 6.15402ZM6.46002 3.10073C6.46002 2.71273 6.58093 2.51873 6.82276 2.51873C7.06458 2.51873 7.18538 2.71273 7.18538 3.10073V4.87189C7.18538 5.26562 7.06458 5.46228 6.82276 5.46228C6.58093 5.46228 6.46002 5.2655 6.46002 4.87189V3.10073Z" fill="white"/>
<path d="M9.1422 6.15431C9.42352 6.15431 9.71318 5.97998 10.0111 5.63127V6.09517H10.7786V1.88647H10.0111V5.09991C9.84236 5.34174 9.68222 5.46253 9.5302 5.46253C9.4289 5.46253 9.36985 5.4007 9.35307 5.27701C9.34742 5.26576 9.34459 5.16727 9.34459 4.98177V1.88647H8.57707V5.20966C8.57707 5.49636 8.59973 5.70714 8.6446 5.84217C8.71777 6.05023 8.88359 6.15431 9.1422 6.15431Z" fill="white"/>
</svg>
